<svg width="17" height="19" viewBox="0 0 17 19" fill="none" xmlns="http://www.w3.org/2000/svg">
<path d="M16 7H1V15.5C1 16.4443 1.44458 17.3334 2.2 17.9C2.71929 18.2895 3.35089 18.5 4 18.5H13.4393C14.1185 18.5 14.7698 18.2302 15.25 17.75C15.7302 17.2698 16 16.6185 16 15.9393V7Z" fill="#898B8E" stroke="#898B8E"/>
<path d="M4.5 3.46353V6.5H6V4.15139C6 3.43206 6.3595 2.76033 6.95801 2.36132C7.31142 2.12572 7.72665 2 8.15139 2H9.34861C9.77335 2 10.1886 2.12572 10.542 2.36133C11.1405 2.76033 11.5 3.43206 11.5 4.15139V6.5H13V4.14137C13 3.41056 12.7097 2.70969 12.1929 2.19293C12.0646 2.06462 11.924 1.9493 11.773 1.84865L11.6303 1.75356C10.8933 1.2622 10.0273 1 9.1415 1H7.92705C7.3174 1 6.71611 1.14194 6.17082 1.41459L5.58541 1.70729C5.20541 1.89729 4.89729 2.20541 4.70729 2.58541C4.57097 2.85806 4.5 3.1587 4.5 3.46353Z" fill="#898B8E" stroke="#898B8E"/>
</svg>
