<svg width="277" height="349" viewBox="0 0 277 349" fill="none" xmlns="http://www.w3.org/2000/svg">
<path d="M151.89 16.3845L158.5 34.5L275 280L276.138 287.589C277.357 295.714 276.372 304.017 273.285 311.63L273.054 312.2C271.362 316.373 269.012 320.247 266.091 323.675C261.441 329.134 255.472 333.314 248.752 335.818L240.282 338.974C235.77 340.654 231.112 341.907 226.366 342.716L197.841 347.578C192.29 348.524 186.669 349 181.038 349H170.5H164.476C155.533 349 146.629 347.8 138.005 345.433L125.5 342L111.755 336.689C106.262 334.567 100.968 331.964 95.9335 328.911L83.6044 321.432C76.5618 317.16 70.0739 312.035 64.2882 306.172L41.4879 283.068C37.5032 279.03 33.8693 274.66 30.6255 270.006L29.0529 267.75C25.6909 262.926 22.7608 257.815 20.2968 252.476L12 234.5L7.43252 220.798C5.81323 215.94 4.56946 210.965 3.71219 205.916L1.91134 195.311C0.972113 189.78 0.5 184.18 0.5 178.57V155L2.36904 141.605C3.12175 136.211 4.31395 130.887 5.93372 125.686L10.0782 112.38C12.0214 106.142 14.5714 100.109 17.6916 94.3675L25.5 80L37.1924 62.8053C40.7229 57.6133 44.7346 52.7654 49.1743 48.3257L56.5415 40.9585C60.8382 36.6618 65.5176 32.7656 70.5217 29.3184L85.5 19L94.1813 13.9592C98.7201 11.3238 103.459 9.04984 108.355 7.15832L120.893 2.31392C122.295 1.77252 123.744 1.36473 125.222 1.09601C136.648 -0.981501 147.91 5.47444 151.89 16.3845Z" fill="url(#paint0_linear_97_461)"/>
<defs>
<linearGradient id="paint0_linear_97_461" x1="139.25" y1="-2.5" x2="253" y2="341.5" gradientUnits="userSpaceOnUse">
<stop stop-color="white"/>
<stop offset="0.0001" stop-color="#ABCAF3"/>
<stop offset="0.0002" stop-color="#FCFCFF"/>
<stop offset="1" stop-color="#B3B3FF"/>
</linearGradient>
</defs>
</svg>
