<svg width="537" height="531" viewBox="0 0 537 531" fill="none" xmlns="http://www.w3.org/2000/svg">
<g filter="url(#filter0_d_97_459)">
<path d="M229.122 2.80144L527 71.5V505.5L205.936 430.5L150.257 413.067C143.744 411.028 137.458 408.327 131.495 405.008L99.6023 387.253C94.5194 384.423 89.6931 381.155 85.1784 377.486L67.3474 362.996C56.3992 354.099 47.4574 342.987 41.1092 330.389L34.9565 318.178C32.5491 313.4 30.529 308.437 28.9156 303.336L19.2511 272.782C17.613 267.602 16.3996 262.299 15.6229 256.922L11.8694 230.94C10.6284 222.35 10.511 213.635 11.5202 205.014L15.2251 173.367C16.2636 164.496 18.4859 155.804 21.8327 147.523L33.5587 118.509C36.914 110.207 41.3691 102.394 46.8046 95.2779L60.9213 76.7972C66.3945 69.632 72.8116 63.2399 79.9982 57.7948L102.34 40.8664C107.053 37.2958 112.073 34.1502 117.341 31.4666L150.647 14.5L171.318 6.69317C189.78 -0.279438 209.892 -1.63352 229.122 2.80144Z" fill="#B190FD"/>
</g>
<defs>
<filter id="filter0_d_97_459" x="0.841888" y="0.24353" width="536.158" height="530.256" filterUnits="userSpaceOnUse" color-interpolation-filters="sRGB">
<feFlood flood-opacity="0" result="BackgroundImageFix"/>
<feColorMatrix in="SourceAlpha" type="matrix" values="0 0 0 0 0 0 0 0 0 0 0 0 0 0 0 0 0 0 127 0" result="hardAlpha"/>
<feOffset dy="15"/>
<feGaussianBlur stdDeviation="5"/>
<feComposite in2="hardAlpha" operator="out"/>
<feColorMatrix type="matrix" values="0 0 0 0 0.482353 0 0 0 0 0.368627 0 0 0 0 0.666667 0 0 0 0.7 0"/>
<feBlend mode="normal" in2="BackgroundImageFix" result="effect1_dropShadow_97_459"/>
<feBlend mode="normal" in="SourceGraphic" in2="effect1_dropShadow_97_459" result="shape"/>
</filter>
</defs>
</svg>
